<?xml version="1.0" encoding="utf-8"?>
<!-- Generator: Adobe Illustrator 27.8.1, SVG Export Plug-In . SVG Version: 6.00 Build 0)  -->
<svg version="1.1" id="Layer_1" xmlns="http://www.w3.org/2000/svg" xmlns:xlink="http://www.w3.org/1999/xlink" x="0px" y="0px"
	 viewBox="0 0 1920 1080" style="enable-background:new 0 0 1920 1080;" xml:space="preserve">
<style type="text/css">
	.st0{fill:#F0F0F5;}
	.st1{fill:#E0E0EB;}
	.st2{fill:#C2C2D6;}
</style>
<g>
	<rect class="st0" width="1920" height="1080"/>
</g>
<path class="st1" d="M0,385.7c0,0,106-131.7,338-90.7s306,31,363,17s247-121,529,16s378-66.9,690-69c0,620,0,620,0,620H0V385.7z"/>
<path class="st2" d="M0,828.7c0,0,106-131.7,338-90.7s306,31,363,17s247-121,529,16s378-66.9,690-69c0,378,0,378,0,378H0V828.7z"/>
</svg>
